<svg xmlns="http://www.w3.org/2000/svg" viewBox="0 0 840 240" clip-rule="evenodd" stroke-linejoin="round" stroke-miterlimit="2" role="img" aria-label="Socket"><defs><linearGradient id="socket-brand-gradient" x1="0" y1="0" x2="1" y2="0"><stop offset="0%" stop-color="#f419b8"/><stop offset="100%" stop-color="#9d5df8"/></linearGradient></defs><path data-socket-layer="shield" fill="url(#socket-brand-gradient)" d="m0 111.713c0 59.2 37.781 109.567 90.637 128.287 26.359-9.309 49.068-26.6 65.129-48.902 16.163-22.367 25.643-49.753 25.643-79.385v-78.975l-90.739-32.738-90.637 32.738v78.975h-.033z"/><path data-socket-layer="bolt" fill="#ffffff" d="M74.918 50.811h42.078l-12.89 43.887h22.915l-62.641 94.458 14.868-68.578h-24.893z"/><g data-socket-layer="text"><path fill="#f8fafc" d="m319.19 189.087c-10.815 0-20.548-2.162-29.2-6.488s-15.395-10.243-20.23-17.749l21.184-17.749c3.308 5.089 7.634 9.033 12.978 11.832s10.815 4.199 16.413 4.199c5.471 0 9.861-1.209 13.169-3.626 3.308-2.418 4.962-5.598 4.962-9.543 0-3.817-1.463-7.125-4.39-9.924-2.926-2.799-7.761-5.344-14.504-7.634l-11.451-4.008c-10.942-3.817-19.244-8.906-24.906-15.268-5.662-6.361-8.493-14.186-8.493-23.474 0-6.362 1.145-12.055 3.435-17.081 2.291-5.026 5.471-9.288 9.543-12.787 4.071-3.499 8.906-6.171 14.504-8.016 5.599-1.845 11.706-2.767 18.322-2.767 8.397 0 16.159 1.495 23.284 4.485s13.614 7.729 19.466 14.218l-18.321 18.894c-6.489-7.761-14.568-11.641-24.238-11.641-2.29 0-4.549.254-6.775.763-2.227.509-4.167 1.272-5.821 2.29s-2.99 2.259-4.008 3.722-1.527 3.212-1.527 5.248c0 4.072 1.686 7.284 5.058 9.638 3.371 2.354 8.683 4.803 15.936 7.348l10.878 4.007c9.924 3.69 17.781 8.748 23.57 15.173s8.684 14.791 8.684 25.097c0 6.107-1.177 11.642-3.531 16.604s-5.63 9.256-9.829 12.882-9.193 6.425-14.982 8.397-12.182 2.958-19.18 2.958z"/><path fill="#f8fafc" d="m422.44 188.897c-6.871 0-13.36-1.273-19.467-3.817-6.107-2.545-11.451-6.076-16.031-10.592-4.581-4.517-8.175-9.797-10.783-15.841-2.609-6.044-3.913-12.564-3.913-19.562s1.304-13.519 3.913-19.562c2.608-6.044 6.202-11.292 10.783-15.745 4.58-4.453 9.924-7.984 16.031-10.592 6.107-2.609 12.596-3.913 19.467-3.913 6.87 0 13.359 1.304 19.466 3.913 6.107 2.608 11.451 6.139 16.032 10.592 4.58 4.453 8.174 9.701 10.783 15.745 2.608 6.043 3.912 12.564 3.912 19.562s-1.304 13.518-3.912 19.562c-2.609 6.044-6.203 11.324-10.783 15.841-4.581 4.516-9.925 8.047-16.032 10.592-6.107 2.544-12.596 3.817-19.466 3.817zm0-24.429c3.435 0 6.584-.636 9.447-1.909 2.862-1.272 5.343-3.021 7.443-5.248 2.099-2.227 3.753-4.898 4.962-8.016 1.209-3.117 1.813-6.52 1.813-10.21s-.604-7.093-1.813-10.211c-1.209-3.117-2.863-5.789-4.962-8.015-2.1-2.227-4.581-3.976-7.443-5.249-2.863-1.272-6.012-1.908-9.447-1.908-3.436 0-6.617.636-9.543 1.908-2.926 1.273-5.439 3.022-7.538 5.249-2.1 2.226-3.754 4.898-4.963 8.015-1.208 3.118-1.813 6.521-1.813 10.211s.605 7.093 1.813 10.21c1.209 3.118 2.863 5.789 4.963 8.016 2.099 2.227 4.612 3.976 7.538 5.248 2.926 1.273 6.107 1.909 9.543 1.909z"/><path fill="#f8fafc" d="m528.361 188.897c-7.125 0-13.741-1.241-19.848-3.722-6.108-2.481-11.451-5.948-16.032-10.401-4.58-4.453-8.174-9.702-10.783-15.745-2.608-6.044-3.912-12.692-3.912-19.944s1.304-13.9 3.912-19.944c2.609-6.043 6.203-11.292 10.783-15.745 4.581-4.453 9.924-7.92 16.032-10.401 6.107-2.481 12.723-3.722 19.848-3.722 4.962 0 9.733.668 14.314 2.004 4.58 1.336 8.811 3.213 12.691 5.63 3.881 2.418 7.38 5.312 10.497 8.684s5.694 7.093 7.729 11.165l-22.711 12.214c-1.908-4.453-4.803-8.111-8.683-10.974-3.881-2.863-8.493-4.294-13.837-4.294-3.435 0-6.616.636-9.542 1.908-2.927 1.273-5.503 3.022-7.73 5.249-2.226 2.226-3.944 4.898-5.153 8.015-1.209 3.118-1.813 6.521-1.813 10.211s.604 7.093 1.813 10.21c1.209 3.118 2.927 5.789 5.153 8.016 2.227 2.227 4.803 3.976 7.73 5.248 2.926 1.273 6.107 1.909 9.542 1.909 5.344 0 9.956-1.431 13.837-4.294 3.88-2.863 6.775-6.521 8.683-10.974l22.711 12.214c-2.035 4.072-4.612 7.793-7.729 11.165s-6.616 6.266-10.497 8.684c-3.88 2.417-8.111 4.294-12.691 5.63-4.581 1.336-9.352 2.004-14.314 2.004z"/><path fill="#f8fafc" d="m608.899 142.902v43.895h-26.146v-143.137h26.146v82.829l30.918-35.116h31.49l-37.788 42.941 46.567 52.483h-32.253z"/><path fill="#f8fafc" d="m719.783 188.897c-7.125 0-13.773-1.177-19.944-3.531s-11.514-5.694-16.031-10.02-8.079-9.574-10.688-15.745c-2.608-6.171-3.912-13.009-3.912-20.516 0-6.998 1.24-13.55 3.721-19.658 2.481-6.107 5.98-11.387 10.497-15.84s9.829-7.952 15.936-10.497c6.107-2.544 12.787-3.817 20.039-3.817 6.235 0 12.183.986 17.845 2.958 5.662 1.973 10.655 4.931 14.981 8.875s7.762 8.843 10.306 14.695c2.545 5.853 3.817 12.66 3.817 20.421v3.817c0 1.4-.127 3.117-.381 5.153h-71.378c.382 3.181 1.336 6.012 2.863 8.493 1.526 2.481 3.435 4.549 5.725 6.203s4.867 2.926 7.729 3.817c2.863.89 5.885 1.335 9.066 1.335 5.98 0 11.037-1.176 15.172-3.53s7.284-5.185 9.447-8.493l19.467 14.505c-4.453 6.488-10.433 11.673-17.94 15.554-7.507 3.88-16.286 5.821-26.337 5.821zm20.421-61.454c-1.145-5.725-3.817-9.924-8.016-12.596s-8.715-4.008-13.55-4.008c-2.418 0-4.867.318-7.348.954-2.481.637-4.771 1.623-6.87 2.959-2.1 1.336-3.945 3.053-5.535 5.153-1.59 2.099-2.704 4.612-3.34 7.538z"/><path fill="#f8fafc" d="m822.46 187.942c-5.089 0-9.829-.699-14.218-2.099-4.39-1.4-8.239-3.531-11.547-6.393-3.308-2.863-5.916-6.457-7.825-10.783-1.908-4.326-2.862-9.416-2.862-15.268v-39.124h-19.276v-22.902h19.276v-26.528h26.146v26.528h26.91v22.902h-26.91v33.971c0 5.852 1.272 10.019 3.817 12.5s6.68 3.722 12.405 3.722c4.072 0 7.634-.573 10.688-1.718v23.093c-2.163.636-4.549 1.145-7.157 1.527s-5.757.572-9.447.572z"/></g></svg>
